<svg width="33" height="32" viewBox="0 0 33 32" fill="none" xmlns="http://www.w3.org/2000/svg">
<path d="M1.21436 4C1.21436 2.067 2.78136 0.5 4.71436 0.5H28.7144C30.6474 0.5 32.2144 2.067 32.2144 4V28C32.2144 29.933 30.6474 31.5 28.7144 31.5H4.71436C2.78136 31.5 1.21436 29.933 1.21436 28V4Z" fill="#F8F9FB"/>
<path d="M1.21436 4C1.21436 2.067 2.78136 0.5 4.71436 0.5H28.7144C30.6474 0.5 32.2144 2.067 32.2144 4V28C32.2144 29.933 30.6474 31.5 28.7144 31.5H4.71436C2.78136 31.5 1.21436 29.933 1.21436 28V4Z" stroke="#B3CBF7"/>
<path d="M16.7144 14C15.6144 14 14.7144 14.9 14.7144 16C14.7144 17.1 15.6144 18 16.7144 18C17.8144 18 18.7144 17.1 18.7144 16C18.7144 14.9 17.8144 14 16.7144 14ZM16.7144 8C15.6144 8 14.7144 8.9 14.7144 10C14.7144 11.1 15.6144 12 16.7144 12C17.8144 12 18.7144 11.1 18.7144 10C18.7144 8.9 17.8144 8 16.7144 8ZM16.7144 20C15.6144 20 14.7144 20.9 14.7144 22C14.7144 23.1 15.6144 24 16.7144 24C17.8144 24 18.7144 23.1 18.7144 22C18.7144 20.9 17.8144 20 16.7144 20Z" fill="#49515C"/>
</svg>
