<svg width="20" height="20" viewBox="0 0 20 20" fill="none" xmlns="http://www.w3.org/2000/svg">
<path d="M7.375 8.92189C7.48936 8.85477 7.58416 8.75887 7.64995 8.64374C7.71574 8.5286 7.75023 8.39825 7.75 8.26564V1.51564C7.75105 1.39483 7.7229 1.27555 7.66794 1.16795C7.61298 1.06036 7.53284 0.967632 7.43433 0.897669C7.33583 0.827705 7.22189 0.782574 7.10219 0.766116C6.9825 0.749658 6.8606 0.76236 6.74688 0.803141C4.84809 1.47954 3.20473 2.72621 2.04173 4.37253C0.878737 6.01885 0.252942 7.98435 0.25 10C0.251016 10.5973 0.304344 11.1933 0.409375 11.7813C0.431909 11.8987 0.481866 12.0092 0.555177 12.1037C0.628488 12.1982 0.72308 12.274 0.83125 12.325C0.931071 12.3721 1.03967 12.3976 1.15 12.4C1.28189 12.3992 1.41124 12.3636 1.525 12.2969L7.375 8.92189ZM6.25 2.65002V7.83439L1.75937 10.4313C1.75 10.2813 1.75 10.1406 1.75 10C1.75288 8.47981 2.17432 6.98975 2.9681 5.69324C3.76188 4.39673 4.89735 3.34383 6.25 2.65002Z" fill="#0F141C"/>
<path d="M18.4656 5.1625C18.4559 5.15204 18.4494 5.13903 18.4469 5.125L18.4094 5.07812C17.5514 3.60906 16.3236 2.39034 14.8482 1.54326C13.3728 0.696189 11.7013 0.250307 10 0.25C9.80108 0.25 9.61032 0.329018 9.46967 0.46967C9.32901 0.610322 9.25 0.801088 9.25 1V9.56875L1.83437 13.8531C1.74794 13.9009 1.67193 13.9655 1.61081 14.043C1.5497 14.1206 1.50472 14.2096 1.47851 14.3048C1.45231 14.4 1.44541 14.4995 1.45822 14.5974C1.47103 14.6954 1.5033 14.7897 1.55312 14.875V14.8937L1.58125 14.9406C2.66269 16.7919 4.32419 18.2351 6.30857 19.0468C8.29296 19.8585 10.4896 19.9936 12.5584 19.431C14.6273 18.8684 16.453 17.6396 17.7531 15.9347C19.0531 14.2298 19.755 12.144 19.75 10C19.7523 8.30293 19.3094 6.63494 18.4656 5.1625Z" fill="#0F141C"/>
</svg>
