<svg width="32" height="32" viewBox="0 0 32 32" fill="none" xmlns="http://www.w3.org/2000/svg">
<path d="M0 4C0 1.79086 1.79086 0 4 0H28C30.2091 0 32 1.79086 32 4V28C32 30.2091 30.2091 32 28 32H4C1.79086 32 0 30.2091 0 28V4Z" fill="#0B56E4"/>
<path d="M0 4C0 1.79086 1.79086 0 4 0H28C30.2091 0 32 1.79086 32 4V28C32 30.2091 30.2091 32 28 32H4C1.79086 32 0 30.2091 0 28V4Z" fill="#0B56E4"/>
<path d="M15.0208 21.2503L12.1458 18.3962L13.0208 17.5212L15.0208 19.4795L18.8542 15.6462L19.7292 16.542L15.0208 21.2503ZM9.75 24.3337C9.41667 24.3337 9.125 24.2087 8.875 23.9587C8.625 23.7087 8.5 23.417 8.5 23.0837V10.167C8.5 9.83366 8.625 9.54199 8.875 9.29199C9.125 9.04199 9.41667 8.91699 9.75 8.91699H11.1042V7.66699H12.4583V8.91699H19.5417V7.66699H20.8958V8.91699H22.25C22.5833 8.91699 22.875 9.04199 23.125 9.29199C23.375 9.54199 23.5 9.83366 23.5 10.167V23.0837C23.5 23.417 23.375 23.7087 23.125 23.9587C22.875 24.2087 22.5833 24.3337 22.25 24.3337H9.75ZM9.75 23.0837H22.25V14.1253H9.75V23.0837ZM9.75 12.8753H22.25V10.167H9.75V12.8753Z" fill="white"/>
</svg>
