<svg width="32" height="32" viewBox="0 0 32 32" fill="none" xmlns="http://www.w3.org/2000/svg">
<path d="M0.5 4C0.5 2.067 2.067 0.5 4 0.5H28C29.933 0.5 31.5 2.067 31.5 4V28C31.5 29.933 29.933 31.5 28 31.5H4C2.067 31.5 0.5 29.933 0.5 28V4Z" fill="#F8F9FB"/>
<path d="M0.5 4C0.5 2.067 2.067 0.5 4 0.5H28C29.933 0.5 31.5 2.067 31.5 4V28C31.5 29.933 29.933 31.5 28 31.5H4C2.067 31.5 0.5 29.933 0.5 28V4Z" stroke="#B3CBF7"/>
<mask id="mask0_1405_14605" style="mask-type:alpha" maskUnits="userSpaceOnUse" x="6" y="6" width="20" height="20">
<rect x="6" y="6" width="20" height="20" fill="#D9D9D9"/>
</mask>
<g mask="url(#mask0_1405_14605)">
<path d="M7.66669 26.0003V22.667H24.3334V26.0003H7.66669ZM11 19.3337H12.1667L18.6667 12.8545L17.4792 11.667L11 18.167V19.3337ZM9.33335 21.0003V17.4587L18.6667 8.14616C18.8195 7.99338 18.9965 7.87533 19.1979 7.79199C19.3993 7.70866 19.6111 7.66699 19.8334 7.66699C20.0556 7.66699 20.2709 7.70866 20.4792 7.79199C20.6875 7.87533 20.875 8.00033 21.0417 8.16699L22.1875 9.33366C22.3542 9.48644 22.4757 9.66699 22.5521 9.87533C22.6285 10.0837 22.6667 10.2989 22.6667 10.5212C22.6667 10.7295 22.6285 10.9344 22.5521 11.1357C22.4757 11.3371 22.3542 11.5212 22.1875 11.6878L12.875 21.0003H9.33335Z" fill="#0B56E4"/>
</g>
</svg>
