<svg width="32" height="32" viewBox="0 0 32 32" fill="none" xmlns="http://www.w3.org/2000/svg">
<path d="M0.5 4C0.5 2.067 2.067 0.5 4 0.5H28C29.933 0.5 31.5 2.067 31.5 4V28C31.5 29.933 29.933 31.5 28 31.5H4C2.067 31.5 0.5 29.933 0.5 28V4Z" fill="#F8F9FB"/>
<path d="M0.5 4C0.5 2.067 2.067 0.5 4 0.5H28C29.933 0.5 31.5 2.067 31.5 4V28C31.5 29.933 29.933 31.5 28 31.5H4C2.067 31.5 0.5 29.933 0.5 28V4Z" stroke="#B3CBF7"/>
<mask id="mask0_1405_13898" style="mask-type:alpha" maskUnits="userSpaceOnUse" x="6" y="6" width="20" height="20">
<rect x="6" y="6" width="20" height="20" fill="#49515C"/>
</mask>
<g mask="url(#mask0_1405_13898)">
<path d="M16 19.333C17.0417 19.333 17.9271 18.9684 18.6562 18.2393C19.3854 17.5101 19.75 16.6247 19.75 15.583C19.75 14.5413 19.3854 13.6559 18.6562 12.9268C17.9271 12.1976 17.0417 11.833 16 11.833C14.9583 11.833 14.0729 12.1976 13.3437 12.9268C12.6146 13.6559 12.25 14.5413 12.25 15.583C12.25 16.6247 12.6146 17.5101 13.3437 18.2393C14.0729 18.9684 14.9583 19.333 16 19.333ZM16 17.833C15.375 17.833 14.8437 17.6143 14.4062 17.1768C13.9687 16.7393 13.75 16.208 13.75 15.583C13.75 14.958 13.9687 14.4268 14.4062 13.9893C14.8437 13.5518 15.375 13.333 16 13.333C16.625 13.333 17.1562 13.5518 17.5937 13.9893C18.0312 14.4268 18.25 14.958 18.25 15.583C18.25 16.208 18.0312 16.7393 17.5937 17.1768C17.1562 17.6143 16.625 17.833 16 17.833ZM16 21.833C13.9722 21.833 12.125 21.267 10.4583 20.1351C8.79166 19.0031 7.58333 17.4858 6.83333 15.583C7.58333 13.6802 8.79166 12.1629 10.4583 11.0309C12.125 9.89898 13.9722 9.33301 16 9.33301C18.0278 9.33301 19.875 9.89898 21.5417 11.0309C23.2083 12.1629 24.4167 13.6802 25.1667 15.583C24.4167 17.4858 23.2083 19.0031 21.5417 20.1351C19.875 21.267 18.0278 21.833 16 21.833ZM16 20.1663C17.5694 20.1663 19.0104 19.7531 20.3229 18.9268C21.6354 18.1004 22.6389 16.9858 23.3333 15.583C22.6389 14.1802 21.6354 13.0656 20.3229 12.2393C19.0104 11.4129 17.5694 10.9997 16 10.9997C14.4306 10.9997 12.9896 11.4129 11.6771 12.2393C10.3646 13.0656 9.36111 14.1802 8.66666 15.583C9.36111 16.9858 10.3646 18.1004 11.6771 18.9268C12.9896 19.7531 14.4306 20.1663 16 20.1663Z" fill="#424242"/>
</g>
</svg>
