<svg width="32" height="32" viewBox="0 0 32 32" fill="none" xmlns="http://www.w3.org/2000/svg">
<path d="M0 4C0 1.79086 1.79086 0 4 0H28C30.2091 0 32 1.79086 32 4V28C32 30.2091 30.2091 32 28 32H4C1.79086 32 0 30.2091 0 28V4Z" fill="#0B56E4"/>
<path d="M9.75 23.4997C9.40625 23.4997 9.11198 23.3773 8.86719 23.1325C8.6224 22.8877 8.5 22.5934 8.5 22.2497V9.74967C8.5 9.40592 8.6224 9.11165 8.86719 8.86686C9.11198 8.62207 9.40625 8.49967 9.75 8.49967H14.0208C14.0903 8.01356 14.3125 7.61426 14.6875 7.30176C15.0625 6.98926 15.5 6.83301 16 6.83301C16.5 6.83301 16.9375 6.98926 17.3125 7.30176C17.6875 7.61426 17.9097 8.01356 17.9792 8.49967H22.25C22.5938 8.49967 22.888 8.62207 23.1328 8.86686C23.3776 9.11165 23.5 9.40592 23.5 9.74967V22.2497C23.5 22.5934 23.3776 22.8877 23.1328 23.1325C22.888 23.3773 22.5938 23.4997 22.25 23.4997H9.75ZM9.75 22.2497H22.25V9.74967H9.75V22.2497ZM11.8333 20.1663H17.5208V18.9163H11.8333V20.1663ZM11.8333 16.6247H20.1667V15.3747H11.8333V16.6247ZM11.8333 13.083H20.1667V11.833H11.8333V13.083ZM16 9.39551C16.1944 9.39551 16.3646 9.32259 16.5104 9.17676C16.6562 9.03092 16.7292 8.86079 16.7292 8.66634C16.7292 8.4719 16.6562 8.30176 16.5104 8.15592C16.3646 8.01009 16.1944 7.93717 16 7.93717C15.8056 7.93717 15.6354 8.01009 15.4896 8.15592C15.3438 8.30176 15.2708 8.4719 15.2708 8.66634C15.2708 8.86079 15.3438 9.03092 15.4896 9.17676C15.6354 9.32259 15.8056 9.39551 16 9.39551Z" fill="white"/>
</svg>
