<svg width="20" height="14" viewBox="0 0 20 14" fill="none" xmlns="http://www.w3.org/2000/svg">
<path d="M7 14C5.05 14 3.39583 13.3208 2.0375 11.9625C0.679167 10.6042 0 8.95 0 7C0 5.05 0.679167 3.39583 2.0375 2.0375C3.39583 0.679167 5.05 0 7 0C8.95 0 10.6042 0.679167 11.9625 2.0375C13.3208 3.39583 14 5.05 14 7C14 8.95 13.3208 10.6042 11.9625 11.9625C10.6042 13.3208 8.95 14 7 14ZM14 13.9V11.9C15.1667 11.6667 16.125 11.0917 16.875 10.175C17.625 9.25833 18 8.2 18 7C18 5.8 17.625 4.74167 16.875 3.825C16.125 2.90833 15.1667 2.33333 14 2.1V0.1C15.7333 0.333333 17.1667 1.10417 18.3 2.4125C19.4333 3.72083 20 5.25 20 7C20 8.75 19.4333 10.2792 18.3 11.5875C17.1667 12.8958 15.7333 13.6667 14 13.9ZM7 12C8.38333 12 9.5625 11.5125 10.5375 10.5375C11.5125 9.5625 12 8.38333 12 7C12 5.61667 11.5125 4.4375 10.5375 3.4625C9.5625 2.4875 8.38333 2 7 2C5.61667 2 4.4375 2.4875 3.4625 3.4625C2.4875 4.4375 2 5.61667 2 7C2 8.38333 2.4875 9.5625 3.4625 10.5375C4.4375 11.5125 5.61667 12 7 12Z" fill="#0F141C"/>
</svg>
